# xmcd CD database file
#
# Track frame offsets:
#	150
#	11437
#	24955
#	42920
#
# Disc length: 828 seconds
#
# Revision: 2
# Processed by: cddbd v1.5.2PL0 Copyright (c) Steve Scherf et al.
# Submitted via: CDex 1.51
#
DISCID=20033a04
DTITLE=Dum Dum Girls - He Gets Me High
DYEAR=2011
DGENRE=Alt. Rock
TTITLE0=Wrong Feels Right
TTITLE1=He Gets Me High
TTITLE2=Take Care Of My Baby
TTITLE3=There Is A Light That Never Goes Out
EXTD=YEAR: 2011
EXTT0=
EXTT1=
EXTT2=
EXTT3=
PLAYORDER=
